<svg height="100" viewBox="0 0 100 100" width="100" xmlns="http://www.w3.org/2000/svg"><g fill="#fff" fill-rule="evenodd"><path d="m70.0865942 0h-40.3481884c-16.3978261 0-29.7384058 13.3405797-29.7384058 29.7384058v40.3481884c0 16.3978261 13.3405797 29.7384058 29.7384058 29.7384058h40.3481884c16.3978261 0 29.7384058-13.3405797 29.7384058-29.7384058v-40.3481884c-.0001812-16.3978261-13.3407609-29.7384058-29.7384058-29.7384058zm19.6960145 70.0865942c0 10.8777174-8.8182971 19.6960145-19.6960145 19.6960145h-40.3481884c-10.8777174 0-19.6960145-8.8182971-19.6960145-19.6960145v-40.3481884c0-10.8778986 8.8182971-19.6960145 19.6960145-19.6960145h40.3481884c10.8777174 0 19.6960145 8.8181159 19.6960145 19.6960145z" fill-rule="nonzero"/><path d="m49.9125 24.0942029c-14.2362319 0-25.8182971 11.5820652-25.8182971 25.8181159 0 14.2360508 11.5820652 25.8182971 25.8182971 25.8182971s25.8182971-11.5820652 25.8182971-25.8182971c0-14.2362318-11.5820652-25.8181159-25.8182971-25.8181159zm0 41.5942029c-8.7128623 0-15.7759058-7.0630435-15.7759058-15.7759058s7.0632246-15.7759058 15.7759058-15.7759058c8.7128623 0 15.7759058 7.0630435 15.7759058 15.7759058 0 8.7126812-7.0632246 15.7759058-15.7759058 15.7759058z" fill-rule="nonzero"/><circle cx="75.780797" cy="24.288044" r="6.186594"/></g></svg>