<svg height="100" viewBox="0 0 100 100" width="100" xmlns="http://www.w3.org/2000/svg"><path d="m100 9.8636364c-3.7344368 1.7012973-7.7080434 2.8188742-11.7818182 3.3136363 4.3139799-2.6620666 7.518884-6.7953434 9.0227273-11.63636361-4.0156658 2.44545901-8.4273018 4.17135011-13.0363636 5.10000001-3.8316439-4.2252753-9.2688313-6.63685112-14.9727273-6.6409091-11.3227273 0-20.5090909 9.4181818-20.5090909 21.0363636 0 1.65.1772727 3.25.5272727 4.7909091-17.0454545-.8727272-32.1590909-9.2454545-42.29090909-21.9863636-1.82612371 3.2304911-2.78157891 6.8800167-2.77272727 10.5909091 0 7.2909091 3.61818181 13.7272727 9.12727276 17.5045454-3.2665083-.10526-6.45833613-1.0038391-9.30000004-2.6181818v.2590909c0 10.1954546 7.07272724 18.7 16.46363634 20.6272728-1.7580734.4981561-3.5772694.7475497-5.4045454.740909-1.3181818 0-2.6136364-.1272727-3.8636364-.3772727 2.6136364 8.3545455 10.1818182 14.4409091 19.1681818 14.6045455-8.5277908 6.8989646-19.488784 10.0447352-30.3772727 8.7181818 9.33339485 6.1572077 20.2686108 9.4398271 31.45 9.4409091 37.7409091 0 58.3727273-32.0454546 58.3727273-59.85 0-.9181818-.0181818-1.8318182-.0545455-2.7272727 4.0326266-2.9912686 7.4977834-6.6796364 10.2318182-10.8909091" fill="#fff" fill-rule="evenodd" transform="translate(0 8)"/></svg>