<svg height="100" viewBox="0 0 100 100" width="100" xmlns="http://www.w3.org/2000/svg"><path d="m40.9090909 50v-27.2727273l27.2727273 13.6818182zm58.0909091-34.3136364s-.9772727-7.1227272-3.9772727-10.2590909c-3.7954546-4.1227272-8.0636364-4.1409091-10.0181818-4.3818182-13.9909091-1.0454545-34.9818182-1.0454545-34.9818182-1.0454545h-.0454546s-20.9909091 0-34.9772727 1.0454545c-1.9545455.2409091-6.21818182.259091-10.02272727 4.3818182-3.00454546 3.1363637-3.97727273 10.2545455-3.97727273 10.2545455s-1 8.3772727-1 16.7409091v7.85c0 8.3681818 1 16.7363636 1 16.7363636s.97727273 7.1227273 3.97272727 10.2636364c3.80454546 4.1181818 8.80000003 3.9909091 11.02727273 4.4181818 8 .7909091 34 1.0363636 34 1.0363636s21.0136364-.0318182 35.0045455-1.0772727c1.9545454-.2454545 6.2181818-.2636364 10.0181818-4.3818182 3-3.1363636 3.9772727-10.2636363 3.9772727-10.2636363s1-8.3681819 1-16.7363637v-7.8454545c0-8.3636364-1-16.7363637-1-16.7363637z" fill="#fff" transform="translate(0 14)"/></svg>